<svg width="171" height="171" viewBox="0 0 171 171" fill="none" xmlns="http://www.w3.org/2000/svg">
<path d="M26.988 26.7768C25.5254 35.8087 41.2343 56.7712 56.5084 56.2972C56.0753 41.9315 36.4488 26.3991 26.988 26.7768Z" fill="#69AF24"/>
<path d="M53.3372 15.2534C45.9165 20.6057 42.2016 46.5364 53.3372 57.0016C63.189 46.5372 60.294 21.6762 53.3372 15.2534Z" fill="#69AF24"/>
<path d="M80.9509 27.4293C71.919 25.9667 50.9564 41.6756 51.4305 56.9497C65.7962 56.5166 81.3285 36.8901 80.9509 27.4293Z" fill="#69AF24"/>
<path d="M35.2239 76.0634C33.2695 65.0088 41.7726 54.8706 52.9987 54.8706C64.2247 54.8706 72.7278 65.0089 70.7734 76.0634L57.3443 152.023C56.9716 154.131 55.1395 155.667 52.9987 155.667C50.8578 155.667 49.0258 154.131 48.6531 152.023L35.2239 76.0634Z" fill="#F78A0A"/>
<path d="M90.4099 26.7768C88.9473 35.8087 104.656 56.7712 119.93 56.2972C119.497 41.9315 99.8707 26.3991 90.4099 26.7768Z" fill="#69AF24"/>
<path d="M116.759 15.2534C109.338 20.6057 105.623 46.5364 116.759 57.0016C126.611 46.5372 123.716 21.6762 116.759 15.2534Z" fill="#69AF24"/>
<path d="M144.373 27.4293C135.341 25.9667 114.378 41.6756 114.852 56.9497C129.218 56.5166 144.75 36.8901 144.373 27.4293Z" fill="#69AF24"/>
<path d="M98.6458 76.0634C96.6914 65.0088 105.195 54.8706 116.421 54.8706C127.647 54.8706 136.15 65.0089 134.195 76.0634L120.766 152.023C120.393 154.131 118.561 155.667 116.421 155.667C114.28 155.667 112.448 154.131 112.075 152.023L98.6458 76.0634Z" fill="#F78A0A"/>
</svg>
