<svg width="171" height="171" viewBox="0 0 171 171" fill="none" xmlns="http://www.w3.org/2000/svg">
<path fill-rule="evenodd" clip-rule="evenodd" d="M68.6734 87.409C68.6721 87.3753 68.671 87.3417 68.6699 87.308C68.6442 87.3341 68.6184 87.3602 68.5925 87.3861C68.6195 87.3937 68.6465 87.4013 68.6734 87.409ZM75.4494 44.6523C67.3261 44.6523 60.496 50.1894 58.5274 57.6952C57.7673 57.5943 56.9918 57.5422 56.2042 57.5422C46.543 57.5422 38.7111 65.3742 38.7111 75.0354C38.7111 83.0598 44.114 89.8223 51.4805 91.8833C48.3259 95.0475 46.3757 99.413 46.3757 104.234C46.3757 112.258 51.7786 119.021 59.1451 121.082C55.9905 124.246 54.0403 128.612 54.0403 133.433C54.0403 143.094 61.8722 150.926 71.5334 150.926C81.1946 150.926 89.0266 143.094 89.0266 133.433C89.0266 131.08 88.5622 128.836 87.72 126.787C89.3693 127.302 91.1235 127.58 92.9426 127.58C102.604 127.58 110.436 119.748 110.436 110.087C110.436 107.734 109.971 105.49 109.129 103.441C110.779 103.956 112.533 104.234 114.352 104.234C124.013 104.234 131.845 96.4021 131.845 86.7409C131.845 78.7994 126.553 72.0938 119.303 69.9583C120.479 67.6068 121.14 64.9534 121.14 62.1455C121.14 52.4843 113.308 44.6523 103.647 44.6523C97.8621 44.6523 92.7328 47.4606 89.5483 51.7883C86.3638 47.4606 81.2346 44.6523 75.4494 44.6523ZM76.5706 116.262C76.4675 116.371 76.363 116.479 76.2571 116.585C76.4244 116.632 76.5907 116.681 76.756 116.733C76.692 116.577 76.6302 116.42 76.5706 116.262Z" fill="#644D9C"/>
<path d="M49.7975 27.2148C45.8791 39.8814 62.919 65.224 83.9154 61.3326C86.3728 41.7716 62.8205 24.6896 49.7975 27.2148Z" fill="#6D9644"/>
<path d="M96.1215 33.617C96.6264 32.54 96.1625 31.2576 95.0855 30.7528C94.0085 30.2479 92.7261 30.7117 92.2213 31.7888L96.1215 33.617ZM92.2213 31.7888C90.8242 34.7692 88.8892 39.7196 87.5724 44.9961C86.2754 50.1932 85.4826 56.0688 86.7043 60.711L90.8699 59.6148C89.9378 56.0728 90.4911 51.0901 91.7517 46.039C92.9924 41.0674 94.8264 36.3798 96.1215 33.617L92.2213 31.7888Z" fill="#B5B773"/>
</svg>
