<svg width="171" height="171" viewBox="0 0 171 171" fill="none" xmlns="http://www.w3.org/2000/svg">
<path d="M70.0362 47.3911C70.0362 62.2525 49.1606 86.5634 43.1272 86.5634C37.0938 86.5634 16.2181 62.2525 16.2181 47.3911C16.2181 32.5296 28.2657 28.0395 43.1272 28.0395C57.9887 28.0395 70.0362 32.5296 70.0362 47.3911Z" fill="#DB4533"/>
<path fill-rule="evenodd" clip-rule="evenodd" d="M48.9333 13.8443C49.7491 13.3483 50.0084 12.2849 49.5124 11.469C49.0165 10.6532 47.953 10.3939 47.1372 10.8898C45.3921 11.9507 42.9106 13.9514 41.0006 16.5979C39.6079 18.5275 38.4526 20.8991 38.2021 23.5534C34.686 21.183 27.2678 20.9011 23.4746 21.1117C24.2188 23.3441 28.1261 26.135 29.9868 27.2514C25.5213 25.9118 18.9471 32.8953 16.2181 36.5545C17.4089 37.4476 25.2731 36.9266 29.0564 36.5545C24.7398 39.3826 27.2578 45.5475 29.0564 48.2764C32.4799 47.0856 36.8089 41.7022 38.5455 39.1594C39.8852 44.0714 49.3991 47.2841 53.9886 48.2764C53.9886 43.0667 51.2597 38.2911 49.8953 36.5545C56.2958 39.3826 67.199 35.3761 71.8505 33.0193C71.1063 30.7866 59.6325 28.2438 53.9886 27.2514C57.561 25.9118 59.3224 20.7397 59.7565 18.3211C54.9713 16.3815 46.6559 20.4813 41.669 23.6646C41.8854 21.8734 42.6878 20.1682 43.8042 18.6214C45.4013 16.4085 47.5154 14.7063 48.9333 13.8443Z" fill="#285F36"/>
<path d="M152.411 47.3911C152.411 62.2525 131.536 86.5634 125.502 86.5634C119.469 86.5634 98.5931 62.2525 98.5931 47.3911C98.5931 32.5296 110.641 28.0396 125.502 28.0396C140.364 28.0396 152.411 32.5296 152.411 47.3911Z" fill="#DB4533"/>
<path fill-rule="evenodd" clip-rule="evenodd" d="M131.308 13.8443C132.124 13.3483 132.383 12.2849 131.887 11.469C131.391 10.6532 130.328 10.3939 129.512 10.8898C127.767 11.9507 125.286 13.9514 123.376 16.5979C121.983 18.5275 120.828 20.8991 120.577 23.5534C117.061 21.183 109.643 20.9011 105.85 21.1117C106.594 23.3441 110.501 26.135 112.362 27.2514C107.896 25.9118 101.322 32.8953 98.5931 36.5545C99.7839 37.4476 107.648 36.9266 111.431 36.5545C107.115 39.3826 109.633 45.5475 111.431 48.2764C114.855 47.0856 119.184 41.7022 120.921 39.1594C122.26 44.0714 131.774 47.2841 136.364 48.2764C136.364 43.0667 133.635 38.2911 132.27 36.5545C138.671 39.3826 149.574 35.3761 154.226 33.0193C153.481 30.7866 142.007 28.2438 136.364 27.2514C139.936 25.9118 141.697 20.7397 142.132 18.3211C137.346 16.3815 129.031 20.4813 124.044 23.6646C124.26 21.8734 125.063 20.1682 126.179 18.6214C127.776 16.4085 129.89 14.7063 131.308 13.8443Z" fill="#285F36"/>
<path d="M111.224 121.587C111.224 136.448 90.3481 160.759 84.3147 160.759C78.2813 160.759 57.4056 136.448 57.4056 121.587C57.4056 106.725 69.4532 102.235 84.3147 102.235C99.1762 102.235 111.224 106.725 111.224 121.587Z" fill="#DB4533"/>
<path fill-rule="evenodd" clip-rule="evenodd" d="M90.1208 88.0398C90.9366 87.5438 91.1959 86.4804 90.6999 85.6645C90.204 84.8487 89.1405 84.5894 88.3247 85.0853C86.5796 86.1462 84.0981 88.1469 82.1881 90.7934C80.7954 92.723 79.6401 95.0946 79.3896 97.7489C75.8735 95.3785 68.4553 95.0966 64.6621 95.3072C65.4063 97.5396 69.3136 100.331 71.1743 101.447C66.7088 100.107 60.1346 107.091 57.4056 110.75C58.5964 111.643 66.4606 111.122 70.2439 110.75C65.9273 113.578 68.4453 119.743 70.2439 122.472C73.6674 121.281 77.9964 115.898 79.733 113.355C81.0727 118.267 90.5866 121.48 95.1761 122.472C95.1761 117.262 92.4472 112.487 91.0828 110.75C97.4833 113.578 108.386 109.572 113.038 107.215C112.294 104.982 100.82 102.439 95.1761 101.447C98.7485 100.107 100.51 94.9352 100.944 92.5166C96.1588 90.577 87.8434 94.6768 82.8565 97.8601C83.0729 96.0689 83.8753 94.3637 84.9917 92.8169C86.5888 90.604 88.7029 88.9018 90.1208 88.0398Z" fill="#285F36"/>
</svg>
