<svg width="171" height="171" viewBox="0 0 171 171" fill="none" xmlns="http://www.w3.org/2000/svg">
<path d="M149.18 78.7521C149.18 141.381 100.351 150.211 85.722 150.211C71.0932 150.211 22.2635 141.381 22.2635 78.7521C22.2635 48.1232 56.6597 37.4259 85.722 47.2936C115.467 40.46 149.18 48.1232 149.18 78.7521Z" fill="#DC3611"/>
<path d="M128.534 38.7822C123.859 44.2714 100.297 38.7822 85.4985 46.1295C86.7841 49.5208 96.5906 52.3087 105.25 51.4274C116.625 50.2695 124.572 46.464 128.534 38.7822Z" fill="#285F36"/>
<path d="M45.7494 38.7822C50.4251 44.2714 73.9867 38.7822 88.7853 46.1295C87.4996 49.5208 77.6931 52.3087 69.0336 51.4274C57.6584 50.2695 49.7121 46.464 45.7494 38.7822Z" fill="#285F36"/>
<path d="M88.1958 31.6234C89.1885 34.9569 88.4334 45.3009 87.2422 47.0314" stroke="#285F36" stroke-width="5" stroke-linecap="round"/>
<path d="M88.4034 45.5721C79.9549 47.8506 73.6984 55.1024 69.4534 68.398C76.6575 66.867 91.3029 59.0348 88.4034 45.5721Z" fill="#285F36"/>
<path d="M85.8819 45.5721C94.3305 47.8506 100.587 55.1024 104.832 68.398C97.6279 66.867 82.9824 59.0348 85.8819 45.5721Z" fill="#285F36"/>
</svg>
